<svg width="400" height="200" viewbox = "0 0 400 200"  xmlns="http://www.w3.org/2000/svg">
<!--<json>{
  "glyph": "0321,01221,0336,0336,0333,0337,0337,0336,0336,0336,0336,0330,0330,0330,0337,0337,0337,0337,072,0365,0333,0336,0336,0336,0336,0331,0331,0331,0337,0337,0337,0332,0337,0321,01314,01336,01313,01220,01220,0331,0332,0332,0332,0332,0332,0332,0332,0336,0331,0337,01220,01220,01314,01337,01313,0336,0330,0333,0336,0341,",
  "x0": 40.27630349731109,
  "y0": 78.99999999999997,
  "unit": 50.00000000000001,
  "width": 400,
  "height": 200,
  "style": {
    "color0": "black",
    "fill0": "black",
    "line0": 1,
    "color1": "black",
    "fill1": "black",
    "line1": 3,
    "color2": "red",
    "fill2": "red",
    "line2": 1,
    "color3": "#FF7900",
    "fill3": "#FF7900",
    "line3": 1,
    "color4": "yellow",
    "fill4": "yellow",
    "line4": 1,
    "color5": "green",
    "fill5": "green",
    "line5": 1,
    "color6": "blue",
    "fill6": "blue",
    "line6": 1,
    "color7": "purple",
    "fill7": "purple",
    "line7": 1
  },
  "shapes": [
    "0220:0336,0366,0330,0333,0333,0336,0331,0337,0367,0335,0335,0366,0331,0333,0333,0367,0335,0335,0337,",
    "0221:0314,0336,0313,0220,0220,0220,0220,0314,0337,0313,",
    "0224:0332,0332,0223,",
    "0225:0336,0336,0201,0330,0337,0334,0336,0336,0336,0336,0331,0337,0362,0203,0335,0337,0337,0337,0305,0352,0334,0203,0335,0304,0335,0336,0336,0336,0203,0363,0331,0334,0337,0337,0337,0305,0352,0334,0331,0335,0304,0336,0336,0336,0362,0335,0203,0334,0337,0337,0337,0305,0352,0335,0203,0334,0304,0334,0336,0336,0336,0203,0363,0335,0333,0337,0337,0337,0305,0352,0335,0331,0334,0304,0336,0336,0336,0336,0332,0337,0337,0337,0337,0336,0330,0337,0341,0331,0337,0336,0336,0331,0337,0337,",
    "0226:0336,0330,0337,0336,0341,0332,0336,0350,0335,0342,0335,0335,0342,0335,0335,0342,0335,0335,0342,0335,0304,0337,0337,0333,0336,0336,0350,0335,0342,0335,0335,0342,0335,0335,0342,0335,0335,0342,0335,0304,0337,0332,0330,0337,",
    "0227:0335,0312,0336,0306,0201,0334,0334,0313,0337,0201,0334,0334,0201,0334,0334,0336,0201,0304,0334,0312,0337,0313,0330,",
    "0230:0336,0336,0201,0334,0201,0335,0201,0335,0201,0201,0335,0201,0335,0201,0335,0330,0334,0330,0335,0201,0335,0201,0201,0335,0201,0335,0335,0330,0332,0201,0337,0337,",
    "0231:0336,0336,0336,0336,0347,0337,0337,0337,0337,",
    "0232:0336,0201,0336,0336,0330,0341,0331,0337,0337,0331,0337,",
    "0233:0342,0336,0330,0336,0336,0331,0334,0306,0362,0203,0335,0335,0203,0203,0335,0335,0203,0203,0335,0335,0203,0363,0330,0335,0335,0330,0330,0335,0331,0337,0342,0336,0330,0334,0337,0331,0336,0333,0335,0304,0334,0331,0331,0331,0337,0337,0337,0330,",
    "0234:0201,0336,0331,0350,0335,0336,0331,0337,0342,0336,0330,0334,0334,0331,0337,0342,0336,0330,0335,0337,0331,0304,0337,0330,",
    "0235:0331,0221,0333,0335,0335,0221,0335,0335,0330,",
    "0236:0201,0336,0336,0334,0306,0362,0336,0203,0335,0335,0203,0203,0335,0335,0203,0203,0335,0335,0203,0363,0304,0335,0337,0337,0337,0331,",
    "0237:0330,0335,0336,0336,0366,0337,0337,0333,0334,0334,0336,0336,0331,0367,0366,0335,0332,0337,0337,0331,0336,0336,0335,0367,0334,0337,0337,0330,",
    "01220:0333,0200,0336,0330,0332,0336,0331,0332,0337,0220,0331,0333,0336,0333,0336,0331,0337,0337,0337,",
    "01221:0333,0200,0336,0332,0337,0336,0336,0336,0332,0337,0337,0337,0221,0331,0336,0333,0336,0336,0333,0337,0337,0337,",
    "01222:0333,0200,",
    "01223:0333,0200,",
    "01224:0333,0200,0336,0332,0337,0224,0336,0333,0337,0331,",
    "01225:0333,0200,0336,0330,0332,0336,0331,0337,0225,0333,0336,0331,0337,0337,",
    "01226:0333,0200,0336,0332,0336,0330,0337,0226,0331,0333,0336,0331,0337,0337,",
    "01227:0333,0200,0336,0332,0336,0330,0337,0227,0331,0336,0331,0337,0333,0337,",
    "01230:0333,0200,0336,0332,0337,0230,0336,0333,0337,0331,",
    "01231:0333,0200,0336,0332,0337,0342,0336,0330,0335,0342,0335,0342,0335,0342,0335,0337,0231,0336,0333,0331,0337,",
    "01232:0333,0200,0336,0330,0332,0336,0331,0337,0232,0333,0336,0331,0337,0337,",
    "01233:0333,0200,0336,0330,0332,0336,0331,0337,0233,0331,0336,0333,0333,0331,0337,0337,",
    "01234:0333,0200,0336,0330,0332,0336,0331,0333,0332,0337,0234,0333,0331,0336,0331,0337,0337,",
    "01235:0333,0200,0336,0330,0332,0336,0332,0330,0337,0235,0331,0336,0333,0331,0337,0337,",
    "01236:0333,0200,0336,0330,0332,0336,0331,0337,0236,0336,0333,0331,0333,0337,0337,",
    "01237:0333,0200,0336,0330,0332,0336,0237,"
  ]
}</json>-->	<path d = "M90 79 L90 29 L40 29 L40 79 L90 79 Z" stroke = "#000000" stroke-width = "3" fill = "none" /><path    d = "M59,79 C59,71 76,66 76,75" fill = "none" stroke-width = "3" stroke = "#000000" /><path    d = "M76,75 C76,83 59,75 59,66" fill = "none" stroke-width = "3" stroke = "#000000" /><path    d = "M59,66 C59,58 76,54 76,62" fill = "none" stroke-width = "3" stroke = "#000000" /><path    d = "M76,62 C76,71 59,62 59,54" fill = "none" stroke-width = "3" stroke = "#000000" /><path    d = "M59,54 C59,46 76,41 76,50" fill = "none" stroke-width = "3" stroke = "#000000" /><path    d = "M76,50 C76,58 59,50 59,41" fill = "none" stroke-width = "3" stroke = "#000000" /><path    d = "M59,41 C59,33 76,29 76,37" fill = "none" stroke-width = "3" stroke = "#000000" /><path    d = "M76,37 C76,46 59,37 59,29" fill = "none" stroke-width = "3" stroke = "#000000" />    <text x="103" y = "70" fill = "#000000" font-size = "50px" font-family = "Arial">:</text>
	<path d = "M178 79 L178 29 L128 29 L128 79 L178 79 Z" stroke = "#000000" stroke-width = "3" fill = "none" />	<path d = "M144 62 L144 46 L128 46 L128 62 L144 62 Z" stroke = "#000000" stroke-width = "3" fill = "none" />	<path d = "M161 62 L161 46 L144 46 L144 62 L161 62 Z" stroke = "#000000" stroke-width = "3" fill = "none" />	<path d = "M178 62 L178 46 L161 46 L161 62 L178 62 Z" stroke = "#000000" stroke-width = "3" fill = "none" />	<path d = "M228 79 L228 29 L178 29 L178 79 L228 79 Z" stroke = "#000000" stroke-width = "3" fill = "none" />    <line x1="215" y1="54" x2="190" y2="54" style="stroke:#000000;stroke-width:3" />
	<path d = "M278 79 L278 29 L228 29 L228 79 L278 79 Z" stroke = "#000000" stroke-width = "3" fill = "none" />	<path d = "M265 66 L265 54 L253 54 L240 54 L240 66 L253 66 L265 66 Z" stroke = "#000000" stroke-width = "3" fill = "none" />    <line x1="253" y1="66" x2="253" y2="54" style="stroke:#000000;stroke-width:3" />
	<path d = "M328 79 L328 29 L278 29 L278 79 L328 79 Z" stroke = "#000000" stroke-width = "3" fill = "none" /><path    d = "M290,66 C290,54 315,48 315,60" fill = "none" stroke-width = "3" stroke = "#000000" /><path    d = "M315,60 C315,73 290,60 290,48" fill = "none" stroke-width = "3" stroke = "#000000" />	<path d = "M378 79 L378 29 L328 29 L328 79 L378 79 Z" stroke = "#000000" stroke-width = "3" fill = "none" /><path    d = "M340,66 C340,54 365,48 365,60" fill = "none" stroke-width = "3" stroke = "#000000" /><path    d = "M365,60 C365,73 340,60 340,48" fill = "none" stroke-width = "3" stroke = "#000000" />	<path d = "M78 154 L78 104 L28 104 L28 154 L78 154 Z" stroke = "#000000" stroke-width = "3" fill = "none" /><path    d = "M40,142 C40,129 65,123 65,135" fill = "none" stroke-width = "3" stroke = "#000000" /><path    d = "M65,135 C65,148 40,135 40,123" fill = "none" stroke-width = "3" stroke = "#000000" />	<path d = "M128 154 L128 104 L78 104 L78 154 L128 154 Z" stroke = "#000000" stroke-width = "3" fill = "none" /><path    d = "M90,142 C90,129 115,123 115,135" fill = "none" stroke-width = "3" stroke = "#000000" /><path    d = "M115,135 C115,148 90,135 90,123" fill = "none" stroke-width = "3" stroke = "#000000" />	<path d = "M178 154 L178 104 L128 104 L128 154 L178 154 Z" stroke = "#000000" stroke-width = "3" fill = "none" />	<path d = "M144 137 L144 121 L128 121 L128 137 L144 137 Z" stroke = "#000000" stroke-width = "3" fill = "none" />	<path d = "M161 137 L161 121 L144 121 L144 137 L161 137 Z" stroke = "#000000" stroke-width = "3" fill = "none" />	<path d = "M178 137 L178 121 L161 121 L161 137 L178 137 Z" stroke = "#000000" stroke-width = "3" fill = "none" />	<path d = "M228 154 L228 104 L178 104 L178 154 L228 154 Z" stroke = "#000000" stroke-width = "3" fill = "none" />    <line x1="203" y1="129" x2="203" y2="117" style="stroke:#000000;stroke-width:3" />
    <line x1="203" y1="129" x2="190" y2="129" style="stroke:#000000;stroke-width:3" />
    <line x1="203" y1="129" x2="203" y2="142" style="stroke:#000000;stroke-width:3" />
    <line x1="203" y1="129" x2="215" y2="129" style="stroke:#000000;stroke-width:3" />
	<path d = "M278 154 L278 104 L228 104 L228 154 L278 154 Z" stroke = "#000000" stroke-width = "3" fill = "none" />	<path d = "M265 141 L265 129 L253 129 L240 129 L240 141 L253 141 L265 141 Z" stroke = "#000000" stroke-width = "3" fill = "none" />    <line x1="253" y1="141" x2="253" y2="129" style="stroke:#000000;stroke-width:3" />
<circle cx="303" cy = "129" r = "12.5" stroke = "#000000" stroke-width = "3" fill = "none" />
</svg>