<svg width="450" height="450" viewbox = "0 0 450 450"  xmlns="http://www.w3.org/2000/svg">
<!--<json>{
  "glyph": "0336,0336,0336,0331,0337,0337,0337,0321,0223,0220,0221,0222,0331,0331,0331,0331,0336,0336,0336,0331,0331,0337,0337,0337,0331,0332,0332,01223,01220,01221,01222,",
  "x0": 225,
  "y0": 225,
  "unit": 72.72727272727272,
  "width": 450,
  "height": 450,
  "style": {
    "color0": "black",
    "fill0": "black",
    "line0": 1,
    "color1": "black",
    "fill1": "black",
    "line1": 5,
    "color2": "red",
    "fill2": "red",
    "line2": 1,
    "color3": "#FF7900",
    "fill3": "#FF7900",
    "line3": 1,
    "color4": "yellow",
    "fill4": "yellow",
    "line4": 1,
    "color5": "green",
    "fill5": "green",
    "line5": 1,
    "color6": "blue",
    "fill6": "blue",
    "line6": 1,
    "color7": "purple",
    "fill7": "purple",
    "line7": 1
  },
  "shapes": [
    "0220:0336,0336,0336,0336,0336,0201,0337,0362,0203,0306,0334,0337,0203,0335,0335,0203,0203,0334,0334,0203,0203,0335,0335,0203,0203,0334,0334,0203,0203,0335,0335,0203,0203,0334,0334,0203,0335,0203,0336,0336,0203,0364,0304,0337,0337,0337,0337,0337,",
    "01220:0333,0200,0336,0332,0337,0220,0336,0333,0337,0331,",
    "0221:0336,0314,0336,0313,0337,0245,0245,0245,0245,0337,0314,0337,0313,0336,",
    "01221:0333,0200,0336,0332,0337,0336,0336,0336,0332,0337,0337,0337,0221,0331,0336,0333,0336,0336,0333,0337,0337,0337,",
    "0222:0336,0336,0362,0203,0336,0203,0334,0364,0337,0342,0335,0335,0342,0332,0342,0335,0335,0342,0335,0336,0362,0203,0337,0203,0335,0364,0335,0337,0337,0335,0335,",
    "01222:0333,0200,0336,0332,0337,0222,0336,0333,0337,0331,",
    "0223:0336,0331,0342,0337,0304,0336,0336,0335,0310,0362,0203,0335,0350,0335,0337,0203,0335,0335,0203,0335,0335,0335,0336,0203,0354,0304,0334,0313,0337,0337,0304,0336,0330,0337,",
    "01223:0333,0200,0336,0332,0337,0330,0223,0331,0336,0333,0337,",
    "0224:0336,0336,0336,0201,0330,0330,0337,0341,0330,0341,0330,0336,0201,0337,0337,0337,",
    "01224:0333,0200,0336,0332,0337,0224,0336,0333,0337,0331,",
    "0225:0336,0336,0201,0330,0337,0334,0336,0336,0336,0336,0331,0337,0362,0203,0335,0337,0337,0337,0305,0352,0334,0203,0335,0304,0335,0336,0336,0336,0203,0363,0331,0334,0337,0337,0337,0305,0352,0334,0331,0335,0304,0336,0336,0336,0362,0335,0203,0334,0337,0337,0337,0305,0352,0335,0203,0334,0304,0334,0336,0336,0336,0203,0363,0335,0333,0337,0337,0337,0305,0352,0335,0331,0334,0304,0336,0336,0336,0336,0332,0337,0337,0337,0337,0336,0330,0337,0341,0331,0337,0336,0336,0331,0337,0337,",
    "01225:0333,0200,0336,0330,0332,0336,0331,0337,0225,0333,0336,0331,0337,0337,",
    "0226:0336,0330,0337,0336,0341,0332,0336,0350,0335,0342,0335,0335,0342,0335,0335,0342,0335,0335,0342,0335,0304,0337,0337,0333,0336,0336,0350,0335,0342,0335,0335,0342,0335,0335,0342,0335,0335,0342,0335,0304,0337,0332,0330,0337,",
    "01226:0333,0200,0336,0332,0336,0330,0337,0226,0331,0333,0336,0331,0337,0337,",
    "0227:0335,0312,0336,0306,0201,0334,0334,0313,0337,0201,0334,0334,0201,0334,0334,0336,0201,0304,0334,0312,0337,0313,0330,",
    "01227:0333,0200,0336,0332,0336,0330,0337,0227,0331,0336,0331,0337,0333,0337,",
    "0230:0336,0336,0201,0334,0201,0335,0201,0335,0201,0201,0335,0201,0335,0201,0335,0330,0334,0330,0335,0201,0335,0201,0201,0335,0201,0335,0335,0330,0332,0201,0337,0337,",
    "01230:0333,0200,0336,0332,0337,0230,0336,0333,0337,0331,",
    "0231:0336,0336,0336,0336,0347,0337,0337,0337,0337,",
    "01231:0333,0200,0336,0332,0337,0342,0336,0330,0335,0342,0335,0342,0335,0342,0335,0337,0231,0336,0333,0331,0337,",
    "0232:0336,0201,0336,0336,0330,0341,0331,0337,0337,0331,0337,",
    "01232:0333,0200,0336,0330,0332,0336,0331,0337,0232,0333,0336,0331,0337,0337,",
    "0233:0342,0336,0330,0336,0336,0331,0334,0306,0362,0203,0335,0335,0203,0203,0335,0335,0203,0203,0335,0335,0203,0363,0330,0335,0335,0330,0330,0335,0331,0337,0342,0336,0330,0334,0337,0331,0336,0333,0335,0304,0334,0331,0331,0331,0337,0337,0337,0330,",
    "01233:0333,0200,0336,0330,0332,0336,0331,0337,0233,0331,0336,0333,0333,0331,0337,0337,",
    "0234:0201,0336,0331,0350,0335,0336,0331,0337,0342,0336,0330,0334,0334,0331,0337,0342,0336,0330,0335,0337,0331,0304,0337,0330,",
    "01234:0333,0200,0336,0330,0332,0336,0331,0333,0332,0337,0234,0333,0331,0336,0331,0337,0337,",
    "0235:0331,0221,0333,0335,0335,0221,0335,0335,0330,",
    "01235:0333,0200,0336,0330,0332,0336,0332,0330,0337,0235,0331,0336,0333,0331,0337,0337,",
    "0236:0201,0336,0336,0334,0306,0362,0336,0203,0335,0335,0203,0203,0335,0335,0203,0203,0335,0335,0203,0363,0304,0335,0337,0337,0337,0331,",
    "01236:0333,0200,0336,0330,0332,0336,0331,0337,0236,0336,0333,0331,0333,0337,0337,",
    "0237:0330,0335,0336,0336,0366,0337,0337,0333,0334,0334,0336,0336,0331,0367,0366,0335,0332,0337,0337,0331,0336,0336,0335,0367,0334,0337,0337,0330,",
    "01237:0333,0200,0336,0330,0332,0336,0237,"
  ]
}</json>-->    <line x1="225" y1="270" x2="225" y2="234" style="stroke:#000000;stroke-width:5" />
	<path d = "M225 270 L243 270 L225 289 L207 270 L225 270 Z" stroke = "#000000" stroke-width = "5" fill = "none" />    <line x1="225" y1="234" x2="225" y2="232" style="stroke:#000000;stroke-width:5" />
	<path d = "M225 232 L225 227 L217 223 L225 218 L233 214 L225 209 L217 205 L225 200 L233 195 L225 191 L217 186 L225 182 L233 177 L225 173 L225 164 L225 161 " stroke = "#000000" stroke-width = "5" fill = "none" /><path    d = "M225,161 C225,149 249,143 249,155" fill = "none" stroke-width = "5" stroke = "#000000" /><path    d = "M249,155 C249,167 225,155 225,143" fill = "none" stroke-width = "5" stroke = "#000000" /><path    d = "M225,143 C225,131 249,125 249,137" fill = "none" stroke-width = "5" stroke = "#000000" /><path    d = "M249,137 C249,149 225,137 225,125" fill = "none" stroke-width = "5" stroke = "#000000" /><path    d = "M225,125 C225,113 249,107 249,119" fill = "none" stroke-width = "5" stroke = "#000000" /><path    d = "M249,119 C249,131 225,119 225,107" fill = "none" stroke-width = "5" stroke = "#000000" /><path    d = "M225,107 C225,95 249,89 249,101" fill = "none" stroke-width = "5" stroke = "#000000" /><path    d = "M249,101 C249,113 225,101 225,89" fill = "none" stroke-width = "5" stroke = "#000000" />	<path d = "M225 89 L225 70 L225 61 " stroke = "#000000" stroke-width = "5" fill = "none" />    <line x1="225" y1="61" x2="207" y2="61" style="stroke:#000000;stroke-width:5" />
    <line x1="225" y1="61" x2="243" y2="61" style="stroke:#000000;stroke-width:5" />
    <line x1="225" y1="43" x2="243" y2="43" style="stroke:#000000;stroke-width:5" />
    <line x1="225" y1="43" x2="207" y2="43" style="stroke:#000000;stroke-width:5" />
	<path d = "M225 43 L225 34 L225 16 " stroke = "#000000" stroke-width = "5" fill = "none" />	<path d = "M152 398 L152 325 L80 325 L80 398 L152 398 Z" stroke = "#000000" stroke-width = "5" fill = "none" />    <line x1="116" y1="361" x2="116" y2="325" style="stroke:#000000;stroke-width:5" />
	<path d = "M116 361 L134 361 L116 380 L98 361 L116 361 Z" stroke = "#000000" stroke-width = "5" fill = "none" />	<path d = "M225 398 L225 325 L152 325 L152 398 L225 398 Z" stroke = "#000000" stroke-width = "5" fill = "none" />    <line x1="189" y1="398" x2="189" y2="395" style="stroke:#000000;stroke-width:5" />
	<path d = "M189 395 L189 391 L181 386 L189 382 L197 377 L189 373 L181 368 L189 364 L197 359 L189 355 L181 350 L189 345 L197 341 L189 336 L189 327 L189 325 " stroke = "#000000" stroke-width = "5" fill = "none" />	<path d = "M298 398 L298 325 L225 325 L225 398 L298 398 Z" stroke = "#000000" stroke-width = "5" fill = "none" /><path    d = "M252,398 C252,386 277,380 277,392" fill = "none" stroke-width = "5" stroke = "#000000" /><path    d = "M277,392 C277,404 252,392 252,380" fill = "none" stroke-width = "5" stroke = "#000000" /><path    d = "M252,380 C252,367 277,361 277,373" fill = "none" stroke-width = "5" stroke = "#000000" /><path    d = "M277,373 C277,386 252,373 252,361" fill = "none" stroke-width = "5" stroke = "#000000" /><path    d = "M252,361 C252,349 277,343 277,355" fill = "none" stroke-width = "5" stroke = "#000000" /><path    d = "M277,355 C277,367 252,355 252,343" fill = "none" stroke-width = "5" stroke = "#000000" /><path    d = "M252,343 C252,331 277,325 277,337" fill = "none" stroke-width = "5" stroke = "#000000" /><path    d = "M277,337 C277,349 252,337 252,325" fill = "none" stroke-width = "5" stroke = "#000000" />	<path d = "M370 398 L370 325 L298 325 L298 398 L370 398 Z" stroke = "#000000" stroke-width = "5" fill = "none" />	<path d = "M334 398 L334 380 L334 370 " stroke = "#000000" stroke-width = "5" fill = "none" />    <line x1="334" y1="370" x2="316" y2="370" style="stroke:#000000;stroke-width:5" />
    <line x1="334" y1="370" x2="352" y2="370" style="stroke:#000000;stroke-width:5" />
    <line x1="334" y1="352" x2="352" y2="352" style="stroke:#000000;stroke-width:5" />
    <line x1="334" y1="352" x2="316" y2="352" style="stroke:#000000;stroke-width:5" />
	<path d = "M334 352 L334 343 L334 325 " stroke = "#000000" stroke-width = "5" fill = "none" /></svg>